# xmcd
#
# Track frame offsets: 
#        210
#        18556
#        37361
#        47649
#        62340
#        81056
#        98540
#        116476
#        126305
#        135579
#        145971
#        155865
#        169143
#
# Disc length: 2383 seconds
#
# Revision: 0
# Processed by: cddbd v1.5.2PL0 Copyright (c) Steve Scherf et al.
# Submitted via: ExactAudioCopy v0.95b3
#
DISCID=b3094d0d
DTITLE=Various Artist - O Album Branco Do Fado
DYEAR=1900
DGENRE=Folk
TTITLE0=Sofia De Portugal - Confesso
TTITLE1=Anamar - So Ana
TTITLE2=Ricardo Ribeiro - Qero-Te Tanto
TTITLE3=Patricia Rodrigues - Fala Da Pintora
TTITLE4=Maria Ana Bobone - Fado De Cada Um
TTITLE5=Goncalo Salgueiro - Alma Minha Gentil
TTITLE6=Joana Amendoeira - Fado Primavera
TTITLE7=Katia Guerreiro - Valsa
TTITLE8=Ana Sofia Varela - Olhos Castanhos
TTITLE9=Ana Moura - Fado Mouraria
TTITLE10=Jose da Camara - Quem Vive Na Minha Saudade
TTITLE11=Rodrigo Costa Felix - Jardim Abandonado
TTITLE12=Miguel Capucho - Podes Dizer Que Sou Teu
EXTD=
EXTT0=
EXTT1=
EXTT2=
EXTT3=
EXTT4=
EXTT5=
EXTT6=
EXTT7=
EXTT8=
EXTT9=
EXTT10=
EXTT11=
EXTT12=
PLAYORDER=
